<?xml version="1.0" encoding="UTF-8"?><svg xmlns="http://www.w3.org/2000/svg" width="100%" height="100%"><defs><font id="web" horiz-adv-x="1207"><!--



NOTICE: This font software is the valuable property 
of Webtype LLC, The Font Bureau, Webtype and/or its 
suppliers and its use by you is covered under the terms 
of the Web Font license agreement between you and Webtype 
LLC. You may ONLY use this font software with the licensed 
web site. Except as specifically permitted by the license, 
you may not copy this font software. If you have any 
questions, please contact Webtype.com. 

For more information, please visit http://www.webtype.com/store/license/?id=23

Licensed to: zoo.org.au|content.zoo.org.au|staging.zoo.org.au|staging2.zoo.org.au

Serial number: SH-1063
--><font-face font-family="" units-per-em="2048" panose-1="2 0 5 3 2 0 0 2 0 4" ascent="1966" descent="-492" alphabetic="0"/><missing-glyph horiz-adv-x="1024"/><glyph unicode=" " horiz-adv-x="553"/><glyph unicode="!" horiz-adv-x="610" d="M373 414H238L197 797V1434H414V797L373 414ZM459 131Q459 99 447 71T413 22T364 -11T305 -23Q273 -23 246 -11T197 22T164 71T152 131Q152 162 164 190T197 240T245 274T305 287Q336 287 364 275T413 241T446 191T459 131Z"/><glyph unicode="&quot;" horiz-adv-x="1004" d="M805 764H651L600 1434H856L805 764ZM352 764H199L147 1434H403L352 764Z"/><glyph unicode="#" horiz-adv-x="1270" d="M971 340V0H782V340H487V0H299V340H94V508H299V926H94V1094H299V1434H487V1094H782V1434H971V1094H1176V926H971V508H1176V340H971ZM786 928H483V506H786V928Z"/><glyph unicode="$" horiz-adv-x="1270" d="M1139 406Q1139 323 1111 255T1031 136T903 51T733 6V-203H522V6Q460 13 402 29T291 69T191 121T104 182L229 348Q273 313 321 284T420 234T524 200T631 188Q768 188 844 240T920 393Q920 435 905 468T852 529T751 582T592 637Q469 675 384 713T245 799T167 908T143 1055Q143 1134 170 1198T246 1309T366 1386T522 1427V1636H735V1430Q792 1425 842 1413T937 1383T1024 1340T1108 1286L985 1116Q940 1147 898 1171T811 1212T720 1236T618 1245Q549 1245 501 1232T423 1194T379 1138T365 1069Q365 1031 377 1001T424 945T523 892T688 834Q815 795 901 755T1040 666T1116 554T1139 406Z"/><glyph unicode="%" horiz-adv-x="1270" d="M524 1059Q524 877 463 772T297 666Q194 666 134 765T74 1059Q74 1256 137 1356T297 1456Q409 1456 466 1351T524 1059ZM381 1059Q381 1189 360 1256T297 1323Q254 1323 235 1258T215 1063Q215 933 236 866T301 799Q342 799 361 865T381 1059ZM360 0H219L909 1434H1051L360 0ZM1196 375Q1196 186 1135 82T971 -23Q863 -22 804 82T745 371Q745 563 808 665T971 768Q1078 768 1137 668T1196 375ZM1055 371Q1055 506 1033 570T970 635Q927 635 908 570T889 375Q889 245 910 178T974 111Q1017 111 1036 177T1055 371Z"/><glyph unicode="&amp;" horiz-adv-x="1393" d="M1331 0H1085L973 133Q892 62 792 20T569 -23Q455 -23 370 5T230 85T147 208T119 367Q119 440 138 499T195 609T289 704T420 791L393 823Q358 867 333 905T291 979T266 1050T258 1126Q258 1204 286 1265T365 1368T490 1433T655 1456Q755 1456 850 1422T1040 1321L940 1149Q898 1179 861 1199T788 1233T716 1251T637 1257Q553 1257 513 1224T473 1130Q473 1108 476 1089T487 1050T510 1008T547 958L967 444Q999 500 1023 561T1065 682L1260 627Q1237 539 1199 450T1104 281L1331 0ZM846 285L543 645Q492 616 453 588T388 527T348 458T334 377Q334 334 349 297T394 233T470 190T578 174Q658 174 725 204T846 285Z"/><glyph unicode="'" horiz-adv-x="551" d="M358 764H193L141 1434H410L358 764Z"/><glyph unicode="(" horiz-adv-x="1270" d="M944 -225Q875 -185 806 -136T674 -28T557 101T463 250T400 420T377 612Q377 719 400 813T463 989T557 1141T674 1270T806 1379T944 1468L1030 1372Q935 1298 859 1221T728 1054T645 860T616 625Q616 491 645 384T728 188T858 22T1030 -129L944 -225Z"/><glyph unicode=")" horiz-adv-x="1270" d="M893 631Q893 524 870 430T807 254T713 102T596 -27T464 -136T326 -225L240 -129Q335 -55 411 22T541 189T624 384T653 618Q653 752 624 859T542 1055T412 1221T240 1372L326 1468Q395 1428 464 1379T596 1271T713 1142T807 993T870 823T893 631Z"/><glyph unicode="*" horiz-adv-x="1024" d="M872 952L791 813L563 975L594 696H434L461 977L233 813L152 952L408 1067L154 1182L236 1321L461 1155L434 1434H594L563 1157L788 1321L870 1182L612 1067L872 952Z"/><glyph unicode="+" horiz-adv-x="1270" d="M739 606V190H530V606H133V803H530V1219H739V803H1137V606H739Z"/><glyph unicode="," horiz-adv-x="635" d="M300 -258H155L185 285H454L300 -258Z"/><glyph unicode="-" horiz-adv-x="737" d="M113 645V854H625V645H113Z"/><glyph unicode="." horiz-adv-x="635" d="M479 139Q479 105 467 76T432 24T381 -10T317 -23Q283 -23 254 -11T203 24T169 75T156 139Q156 173 168 202T202 254T253 290T317 303Q351 303 380 290T432 255T466 203T479 139Z"/><glyph unicode="/" horiz-adv-x="913" d="M244 -184H33L670 1618H881L244 -184Z"/><glyph unicode="0" horiz-adv-x="1270" d="M1167 717Q1167 538 1128 400T1018 168T850 26T635 -23Q518 -23 420 25T250 167T140 399T100 717Q100 896 140 1034T251 1265T420 1407T635 1456Q752 1456 850 1408T1018 1266T1128 1035T1167 717ZM952 717Q952 850 930 952T866 1124T767 1230T635 1266Q561 1266 502 1231T402 1125T339 953T317 717Q317 584 339 482T403 310T503 204T635 168Q708 168 767 203T867 308T930 480T952 717Z"/><glyph unicode="1" horiz-adv-x="1270" d="M240 0V182H561V1102H272V1245Q345 1249 401 1260T499 1293T565 1349T602 1434H778V182H1071V0H240Z"/><glyph unicode="2" horiz-adv-x="1270" d="M106 0Q114 145 151 252T252 444T404 597T602 733Q691 790 747 832T834 910T877 981T889 1061Q889 1157 821 1211T623 1266Q563 1266 513 1256T420 1226T337 1181T260 1122L137 1272Q185 1311 237 1344T350 1403T479 1442T629 1456Q732 1456 819 1433T968 1362T1065 1243T1100 1075Q1100 996 1082 937T1021 825T911 722T741 608Q632 539 562 485T448 382T382 289T348 195H1114V0H106Z"/><glyph unicode="3" horiz-adv-x="1270" d="M1118 420Q1118 313 1081 231T975 92T807 6T582 -23Q502 -23 431 -8T298 34T183 97T86 176L221 319Q293 251 384 209T588 166Q752 166 828 232T905 416Q905 476 883 520T821 595T722 640T592 655H471V836H590Q722 836 784 894T846 1053Q846 1100 831 1139T783 1207T697 1252T567 1268Q474 1268 399 1235T264 1147L139 1288Q174 1319 220 1349T321 1403T439 1441T573 1456Q677 1456 766 1434T920 1365T1022 1248T1059 1079Q1059 1016 1045 967T1004 878T940 810T858 758Q909 745 956 719T1039 651T1096 553T1118 420Z"/><glyph unicode="4" horiz-adv-x="1270" d="M1004 322V0H809V324H84V489L784 1434H1004V502H1182V322H1004ZM809 1164L319 502H809V1164Z"/><glyph unicode="5" horiz-adv-x="1270" d="M1145 481Q1145 353 1106 259T996 102T823 8T598 -23Q456 -23 339 18T123 131L233 291Q314 234 410 200T610 166Q692 166 753 188T854 250T914 346T934 473Q934 603 861 674T641 745Q594 745 556 739T484 721T421 693T365 655L166 723L213 1434H1063V1241H395L367 848Q419 882 492 906T668 930Q785 930 874 899T1024 810T1114 668T1145 481Z"/><glyph unicode="6" horiz-adv-x="1270" d="M1180 455Q1180 338 1140 249T1027 99T856 8T637 -23Q526 -23 431 9T266 110T155 286T115 545Q115 641 133 743T193 943T301 1130T462 1288T682 1402T969 1456L979 1274Q707 1249 547 1116T326 750Q360 782 398 809T483 855T586 884T713 895Q811 895 896 869T1045 788T1144 650T1180 455ZM969 440Q969 503 949 553T889 639T790 694T653 713Q576 713 516 694T414 640T350 554T328 440Q328 380 350 329T414 241T514 183T647 162Q725 162 785 182T886 238T948 325T969 440Z"/><glyph unicode="7" horiz-adv-x="1270" d="M1155 1249Q1040 1125 948 990T790 703T689 376T651 0H434Q438 189 472 359T566 683T711 975T903 1239H109V1434H1155V1249Z"/><glyph unicode="8" horiz-adv-x="1270" d="M1163 414Q1163 308 1126 227T1019 90T851 6T631 -23Q510 -23 413 5T248 88T143 224T106 412Q106 482 124 538T176 639T256 716T360 770Q317 789 281 816T219 879T177 962T162 1065Q162 1151 194 1223T287 1346T436 1427T635 1456Q748 1456 835 1428T983 1348T1074 1225T1106 1067Q1106 1012 1092 968T1051 887T989 823T907 774Q964 753 1011 720T1092 643T1144 541T1163 414ZM899 1061Q899 1103 884 1142T837 1212T755 1261T633 1280Q561 1280 511 1263T430 1215T385 1146T371 1065Q371 1019 388 980T439 912T522 867T635 850Q697 850 746 866T829 911T881 978T899 1061ZM952 412Q952 469 931 517T870 600T770 654T633 674Q555 674 496 655T397 602T336 520T315 416Q315 357 335 310T396 229T497 177T637 158Q717 158 777 175T876 229T934 310T952 412Z"/><glyph unicode="9" horiz-adv-x="1270" d="M942 993Q942 1054 920 1105T856 1193T756 1251T623 1272Q545 1272 485 1252T384 1196T322 1108T301 993Q301 862 384 792T616 721Q693 721 753 740T856 794T920 879T942 993ZM1153 889Q1153 793 1135 691T1075 491T968 303T808 145T588 31T301 -23L291 160Q562 185 723 318T944 684Q910 652 872 625T787 579T684 550T557 539Q458 539 373 565T224 646T124 784T88 979Q88 1096 128 1185T241 1334T414 1425T633 1456Q744 1456 839 1424T1003 1323T1113 1147T1153 889Z"/><glyph unicode=":" horiz-adv-x="635" d="M480 934Q480 901 467 872T432 820T381 785T318 772Q285 772 256 785T204 820T169 871T156 934Q156 967 169 996T204 1048T255 1084T318 1098Q351 1098 380 1085T432 1049T467 997T480 934ZM480 139Q480 106 467 77T432 25T381 -10T318 -23Q285 -23 256 -10T204 25T169 76T156 139Q156 172 169 201T204 253T255 289T318 303Q351 303 380 290T432 254T467 202T480 139Z"/><glyph unicode=";" horiz-adv-x="635" d="M479 934Q479 901 466 872T431 820T380 785T317 772Q284 772 255 785T203 820T168 871T155 934Q155 967 168 996T203 1048T254 1084T317 1098Q350 1098 379 1085T431 1049T466 997T479 934ZM301 -258H155L186 285H454L301 -258Z"/><glyph unicode="&lt;" horiz-adv-x="1270" d="M166 610V807L1108 1380V1149L373 711L1108 272V35L166 610Z"/><glyph unicode="=" horiz-adv-x="1270" d="M164 840V1040H1106V840H164ZM164 369V569H1106V369H164Z"/><glyph unicode="&gt;" horiz-adv-x="1270" d="M162 35V268L897 705L162 1143V1380L1104 807V610L162 35Z"/><glyph unicode="?" horiz-adv-x="1169" d="M1059 1075Q1059 1001 1042 945T992 845T909 765T795 692Q745 664 715 639T669 584T647 513T641 414H418Q418 504 428 567T468 679T550 771T688 860Q727 882 756 902T803 946T831 998T840 1063Q840 1150 768 1196T563 1243Q460 1243 376 1204T207 1083L70 1245Q113 1289 166 1327T283 1394T417 1439T569 1456Q678 1456 768 1432T923 1359T1023 1240T1059 1075ZM682 131Q682 99 670 71T636 22T587 -11T528 -23Q496 -23 469 -11T420 22T387 71T375 131Q375 162 387 190T420 240T468 274T528 287Q559 287 587 275T636 241T669 191T682 131Z"/><glyph unicode="@" horiz-adv-x="1712" d="M1595 737Q1595 621 1572 541T1507 410T1409 338T1284 315Q1245 315 1211 324T1150 350T1102 389T1065 442Q1029 394 954 355T803 315Q744 315 688 332T589 384T519 472T492 596Q492 662 518 711T590 792T695 840T821 856Q883 856 936 840T1024 803V907Q1024 972 975 1000T834 1028Q777 1028 729 1018T635 979L578 1079Q635 1113 703 1131T842 1149Q914 1149 973 1134T1073 1089T1138 1012T1161 903V559Q1161 503 1192 470T1296 436Q1350 436 1385 459T1439 522T1467 612T1477 739Q1477 861 1430 970T1300 1161T1103 1291T856 1339Q722 1339 608 1292T412 1163T283 966T236 719Q236 584 282 470T411 273T608 143T856 96Q925 96 989 109T1122 156L1171 47Q1127 27 1089 14T1014 -8T939 -19T856 -23Q749 -23 653 2T474 73T326 186T214 335T142 513T117 717Q117 824 142 920T213 1099T326 1247T474 1359T652 1431T856 1456Q965 1456 1062 1430T1241 1357T1389 1243T1500 1096T1570 925T1595 737ZM1024 678Q993 701 938 720T813 739Q772 739 737 731T676 704T637 659T625 600Q625 526 675 482T823 438Q851 438 881 446T938 470T987 506T1024 553V678Z"/><glyph unicode="A" horiz-adv-x="1458" d="M1362 0H1133L1012 340H438L319 0H96L612 1434H840L1362 0ZM946 532L723 1171L504 532H946Z"/><glyph unicode="B" horiz-adv-x="1382" d="M1247 440Q1247 222 1119 111T756 0H186V1434H776Q870 1434 946 1410T1076 1338T1159 1222T1188 1061Q1188 1006 1174 962T1136 882T1079 820T1006 774Q1048 762 1091 737T1168 670T1225 572T1247 440ZM973 1049Q973 1089 962 1123T928 1182T866 1222T774 1237H389V866H774Q827 866 864 881T926 921T961 980T973 1049ZM1032 434Q1032 487 1018 527T974 601T896 653T778 672H389V197H772Q844 197 893 214T973 262T1018 337T1032 434Z"/><glyph unicode="C" horiz-adv-x="1341" d="M1022 1069Q994 1113 965 1145T901 1199T823 1230T725 1241Q631 1241 559 1205T439 1100T365 934T340 717Q340 596 365 499T438 334T559 230T725 193Q837 193 911 238T1040 371L1219 252Q1169 172 1125 130T1025 54T895 -1T725 -23Q623 -23 542 4T394 78T275 195T189 342T138 512T119 717Q119 880 161 1015T283 1249T474 1401T725 1456Q900 1456 1019 1387T1212 1188L1022 1069Z"/><glyph unicode="D" horiz-adv-x="1391" d="M1276 717Q1276 590 1251 488T1179 307T1068 169T926 74T760 18T578 0H186V1434H578Q722 1434 849 1393T1071 1265T1221 1043T1276 717ZM1057 717Q1057 830 1030 923T945 1084T796 1188T578 1225H401V209H578Q705 209 796 246T945 350T1030 510T1057 717Z"/><glyph unicode="E" horiz-adv-x="1260" d="M1141 0H186V1434H1110V1225H401V870H977V662H401V209H1141V0Z"/><glyph unicode="F" horiz-adv-x="1192" d="M401 1223V848H813V637H401V0H186V1434H1110V1223H401Z"/><glyph unicode="G" horiz-adv-x="1389" d="M1270 561Q1270 423 1230 315T1117 131T945 17T725 -23Q586 -23 474 31T283 184T162 418T119 717Q119 880 161 1015T283 1249T474 1401T725 1456Q900 1456 1019 1387T1212 1188L1024 1071Q996 1115 967 1147T902 1200T824 1231T725 1241Q631 1241 559 1205T438 1100T364 934T338 717Q338 596 363 499T438 334T559 230T725 193Q879 193 965 279T1051 514V520H817V727H1270V561Z"/><glyph unicode="H" horiz-adv-x="1462" d="M1061 0V639H401V0H186V1434H401V854H1061V1434H1276V0H1061Z"/><glyph unicode="I" horiz-adv-x="608" d="M197 0V1434H412V0H197Z"/><glyph unicode="J" horiz-adv-x="1235" d="M1059 565Q1059 276 934 127T549 -23Q448 -23 368 3T226 78T120 197T49 358L258 420Q278 367 303 327T361 257T443 210T555 193Q633 193 687 215T777 285T828 406T844 582V1434H1059V565Z"/><glyph unicode="K" horiz-adv-x="1403" d="M1317 0H1073L662 735L395 414V0H186V1434H395V702L981 1434H1225L805 913L1317 0Z"/><glyph unicode="L" horiz-adv-x="1219" d="M186 0V1434H401V211H1116V0H186Z"/><glyph unicode="M" horiz-adv-x="1655" d="M1468 0H1257V990L821 -23L389 990V0H186V1434H408L828 436L1239 1434H1468V0Z"/><glyph unicode="N" horiz-adv-x="1462" d="M1276 0H1071L395 1062V0H186V1434H406L1067 372V1434H1276V0Z"/><glyph unicode="O" horiz-adv-x="1456" d="M1339 719Q1339 551 1295 415T1169 181T975 30T725 -23Q589 -23 477 29T285 178T161 411T117 715Q117 882 161 1019T287 1253T480 1403T729 1456Q866 1456 978 1404T1171 1255T1295 1022T1339 719ZM1120 715Q1120 837 1090 934T1007 1100T882 1206T723 1243Q638 1243 567 1207T445 1103T365 938T336 719Q336 597 365 499T447 333T572 227T731 190Q816 190 887 226T1010 330T1091 495T1120 715Z"/><glyph unicode="P" horiz-adv-x="1337" d="M1247 985Q1247 874 1212 790T1114 650T964 564T772 535H397V0H186V1434H786Q885 1434 969 1406T1115 1321T1212 1181T1247 985ZM1028 985Q1028 1044 1011 1090T961 1167T884 1215T782 1231H397V737H782Q906 737 967 803T1028 985Z"/><glyph unicode="Q" horiz-adv-x="1452" d="M1333 717Q1333 613 1315 518T1258 339T1184 210T1112 129L1208 -20L1032 -131L936 16Q888 -2 835 -12T725 -23Q586 -23 474 31T283 184T162 418T119 717Q119 880 161 1015T283 1249T474 1401T725 1456Q865 1456 977 1402T1169 1249T1290 1016T1333 717ZM1114 717Q1114 837 1089 934T1014 1099T892 1204T725 1241Q631 1241 559 1205T438 1100T364 934T338 717Q338 596 363 499T438 332T559 226T725 188Q778 188 821 199L717 360L893 471L997 307Q1059 375 1086 479T1114 717Z"/><glyph unicode="R" horiz-adv-x="1421" d="M1006 0L721 567H397V0H186V1434H815Q909 1434 992 1409T1139 1331T1239 1197T1276 1006Q1276 920 1254 851T1191 729T1092 640T961 586L1253 0H1006ZM1059 999Q1059 1055 1042 1098T992 1171T915 1216T815 1231H397V770H815Q869 770 913 784T990 826T1041 898T1059 999Z"/><glyph unicode="S" horiz-adv-x="1282" d="M1147 412Q1147 315 1116 235T1019 98T854 9T616 -23Q538 -23 466 -7T329 40T208 113T106 209L260 358Q296 319 340 288T432 234T531 200T633 188Q785 188 857 240T930 397Q930 439 913 471T858 530T758 583T606 635Q492 669 408 703T269 783T186 895T158 1057Q158 1150 195 1224T295 1349T445 1428T631 1456Q713 1455 775 1442T896 1402T1002 1343T1100 1262L948 1108Q907 1149 874 1171T806 1209T723 1235T614 1245Q551 1245 506 1231T432 1192T389 1136T375 1067Q375 1029 389 1000T438 946T534 896T688 844Q794 812 879 777T1023 692T1115 576T1147 412Z"/><glyph unicode="T" horiz-adv-x="1243" d="M729 1223V0H514V1223H96V1434H1147V1223H729Z"/><glyph unicode="U" horiz-adv-x="1442" d="M1266 598Q1266 448 1230 332T1124 137T951 18T715 -23Q582 -23 481 19T313 141T211 338T176 602V1434H391V608Q391 404 474 299T719 193Q888 193 969 295T1051 594V1434H1266V598Z"/><glyph unicode="V" horiz-adv-x="1409" d="M1313 1434L821 0H594L96 1434H330L709 276L1083 1434H1313Z"/><glyph unicode="W" horiz-adv-x="1767" d="M1665 1434L1372 0H1155L891 1091L616 0H403L111 1434H328L531 366L801 1434H985L1254 366L1457 1434H1665Z"/><glyph unicode="X" horiz-adv-x="1350" d="M1258 0H1001L682 554L365 0H113L557 740L141 1434H397L686 925L977 1434H1229L813 742L1258 0Z"/><glyph unicode="Y" horiz-adv-x="1411" d="M1327 1434L813 567V0H598V567L84 1434H336L707 777L1080 1434H1327Z"/><glyph unicode="Z" horiz-adv-x="1360" d="M1212 0H123V209L973 1235H164V1434H1212V1225L372 199H1212V0Z"/><glyph unicode="[" horiz-adv-x="778" d="M194 -225V1434H649V1260H397V-51H649V-225H194Z"/><glyph unicode="\" horiz-adv-x="913" d="M670 -184L33 1618H244L881 -184H670Z"/><glyph unicode="]" horiz-adv-x="778" d="M129 -225V-51H381V1260H129V1434H584V-225H129Z"/><glyph unicode="^" horiz-adv-x="1184" d="M852 782L590 1210L328 782H96L510 1434H674L1087 782H852Z"/><glyph unicode="_" horiz-adv-x="1024" d="M0 -362V-168H1024V-362H0Z"/><glyph unicode="`" horiz-adv-x="1024" d="M543 1219L205 1546H492L711 1219H543Z"/><glyph unicode="a" horiz-adv-x="1126" d="M772 0V106Q731 68 704 51T648 18T575 -10T477 -23Q412 -23 346 -4T226 59T138 172T104 340Q104 430 136 495T226 604T362 667T532 688Q617 688 675 677T772 647V727Q772 815 720 862T569 909Q486 909 419 893T289 842L207 1001Q284 1049 372 1073T575 1098Q665 1098 739 1076T867 1009T949 896T979 737V0H772ZM772 459Q742 473 718 480T668 493T606 502T526 506Q424 506 365 463T305 346Q305 298 322 265T365 210T426 179T512 168Q554 168 593 180T666 211T727 255T772 305V459Z"/><glyph unicode="b" horiz-adv-x="1167" d="M1059 520Q1059 382 1024 280T931 111T796 10T635 -23Q557 -23 484 13T365 100V0H156V1384L365 1493V973Q398 1003 425 1022T482 1058T552 1086T645 1098Q732 1098 807 1066T939 963T1027 784T1059 520ZM848 514Q848 716 786 809T606 903Q568 903 534 892T468 861T410 817T362 766V313Q380 289 406 264T466 219T536 185T614 172Q729 172 788 257T848 514Z"/><glyph unicode="c" horiz-adv-x="1069" d="M954 178Q922 138 886 102T803 38T700 -6T569 -23Q471 -23 386 17T239 130T140 306T104 535Q104 668 140 773T241 950T391 1060T575 1098Q694 1098 787 1052T956 915L831 766Q793 804 766 825T707 864T641 889T569 897Q512 897 466 872T386 801T335 689T317 541Q317 462 334 396T383 281T464 205T575 178Q613 178 644 186T703 211T759 253T819 311L954 178Z"/><glyph unicode="d" horiz-adv-x="1167" d="M803 0V102Q773 75 741 52T672 11T598 -15T522 -23Q435 -23 360 9T229 112T141 291T109 555Q109 693 143 795T236 965T371 1065T532 1098Q573 1098 612 1088T686 1061T750 1022T803 975V1384L1012 1493V0H803ZM805 762Q787 786 761 811T701 856T631 890T553 903Q438 903 379 818T319 561Q319 460 335 387T382 266T458 195T561 172Q599 172 634 183T700 214T757 258T805 309V762Z"/><glyph unicode="e" horiz-adv-x="1135" d="M1028 559Q1028 530 1026 505T1022 463H311Q320 385 345 330T406 238T487 185T582 168Q617 168 648 174T707 192T758 216T815 254L940 119Q900 81 864 58T785 16T688 -13T569 -23Q499 -23 438 -4T330 47T246 119T174 223T122 365T104 537Q104 673 138 778T235 954T384 1061T575 1098Q690 1098 775 1055T916 938T1000 766T1028 559ZM815 637Q811 692 796 741T750 827T673 885T561 907Q505 907 463 889T391 836T342 753T315 637H815Z"/><glyph unicode="f" horiz-adv-x="741" d="M659 1282Q622 1293 593 1298T537 1303Q515 1303 497 1299T465 1284T445 1252T438 1198V1075H637V879H438V0H227V879H88V1075H227V1217Q227 1290 248 1341T306 1425T393 1472T500 1487Q542 1487 583 1482T659 1466V1282Z"/><glyph unicode="g" horiz-adv-x="1167" d="M1012 102Q1012 -9 990 -93T916 -240Q853 -315 744 -354T467 -397L406 -225Q529 -221 619 -198T746 -133Q779 -98 790 -45T801 84V102Q772 75 741 53T675 13T602 -13T522 -23Q436 -23 361 9T230 112T142 291T109 555Q109 693 144 795T237 965T372 1065T532 1098Q573 1098 612 1088T685 1061T749 1022T801 975V1075H1012V102ZM561 172Q629 172 690 209T805 309V762Q787 786 761 811T701 856T631 890T553 903Q438 903 379 818T319 561Q319 372 378 272T561 172Z"/><glyph unicode="h" horiz-adv-x="1167" d="M809 0V608Q809 757 756 830T588 903Q539 903 498 887T427 834T382 747T367 629V0H156V1382L367 1493V973Q387 1002 416 1025T480 1065T555 1089T637 1098Q734 1098 805 1067T924 976T996 822T1020 616V0H809Z"/><glyph unicode="i" horiz-adv-x="543" d="M408 1350Q408 1322 397 1298T368 1255T325 1225T272 1214Q244 1214 219 1225T176 1254T146 1297T135 1350Q135 1378 146 1403T175 1446T219 1476T272 1487Q300 1487 324 1476T367 1447T397 1403T408 1350ZM166 0V1075H377V0H166Z"/><glyph unicode="j" horiz-adv-x="543" d="M408 1350Q408 1322 397 1298T368 1255T325 1225T272 1214Q244 1214 219 1225T176 1254T146 1297T135 1350Q135 1378 146 1403T175 1446T219 1476T272 1487Q300 1487 324 1476T367 1447T397 1403T408 1350ZM377 49Q377 -52 362 -125T306 -251T194 -338T12 -395L-59 -236Q14 -215 58 -195T127 -144T158 -69T166 45V1075H377V49Z"/><glyph unicode="k" horiz-adv-x="1083" d="M768 0L530 535L367 317V0H156V1382L367 1493V599L707 1075H946L674 715L997 0H768Z"/><glyph unicode="l" horiz-adv-x="543" d="M166 0V1382L377 1493V0H166Z"/><glyph unicode="m" horiz-adv-x="1763" d="M1405 0V608Q1405 689 1392 745T1354 837T1289 887T1198 903Q1142 903 1103 884T1039 828T1003 739T991 629V0H780V608Q780 689 768 745T729 837T664 887T573 903Q521 903 481 885T416 829T379 744T367 629V0H156V1075H367V973Q407 1032 473 1065T623 1098Q732 1098 803 1058T918 940Q947 976 978 1005T1048 1055T1135 1087T1247 1098Q1334 1098 1401 1072T1517 986T1591 832T1616 616V0H1405Z"/><glyph unicode="n" horiz-adv-x="1167" d="M809 0V608Q809 754 757 828T588 903Q537 903 494 885T422 829T380 740T367 629V0H156V1075H367V973Q387 1002 416 1025T480 1065T555 1089T637 1098Q734 1098 805 1067T924 976T996 827T1020 616V0H809Z"/><glyph unicode="o" horiz-adv-x="1167" d="M1063 543Q1063 409 1026 304T924 126T770 15T578 -23Q476 -23 390 17T240 130T140 307T104 537Q104 669 141 773T242 949T394 1060T584 1098Q687 1098 774 1059T926 947T1026 772T1063 543ZM850 537Q850 619 831 685T777 799T690 871T575 897Q515 897 468 872T387 800T335 688T317 543Q317 454 336 386T391 272T476 202T586 178Q646 178 694 206T777 283T831 397T850 537Z"/><glyph unicode="p" horiz-adv-x="1167" d="M1059 520Q1059 382 1024 280T931 111T796 10T635 -23Q564 -23 494 8T365 100V-287L156 -395V1075H365V973Q423 1027 491 1062T645 1098Q732 1098 807 1066T939 963T1027 784T1059 520ZM848 514Q848 716 786 809T606 903Q541 903 477 867T362 766V313Q380 289 406 264T466 219T536 185T614 172Q729 172 788 257T848 514Z"/><glyph unicode="q" horiz-adv-x="1167" d="M803 -395V102Q744 48 676 13T522 -23Q435 -23 360 9T229 112T141 291T109 555Q109 693 143 795T236 965T371 1065T532 1098Q573 1098 612 1088T686 1061T750 1022T803 975V1075H1012V-287L803 -395ZM805 762Q787 786 761 811T701 856T631 890T553 903Q438 903 379 818T319 561Q319 370 379 271T561 172Q633 172 695 211T805 309V762Z"/><glyph unicode="r" horiz-adv-x="856" d="M739 852Q705 871 668 881T578 891Q477 891 422 822T367 614V0H156V1075H367V973Q385 1000 411 1022T468 1062T536 1088T612 1098Q677 1098 720 1086T795 1053L739 852Z"/><glyph unicode="s" horiz-adv-x="1022" d="M864 979L772 817Q706 864 639 886T494 909Q416 909 381 882T346 811Q346 791 354 773T385 737T445 699T545 655Q635 620 702 588T815 517T884 424T907 295Q907 206 874 145T785 47T656 -7T504 -23Q402 -23 290 14T92 115L188 274Q264 222 345 195T502 168Q602 168 650 199T698 287Q698 318 681 341T632 385T553 425T449 467Q362 501 302 534T204 606T150 693T133 805Q133 877 160 932T236 1023T352 1079T500 1098Q602 1098 697 1065T864 979Z"/><glyph unicode="t" horiz-adv-x="825" d="M670 27Q631 5 579 -9T463 -23Q408 -23 367 -8T291 41T239 129T221 262V883H68V1075H221V1382L428 1493V1075H694V883H428V299Q428 261 434 237T454 197T489 176T539 170Q580 170 622 183T694 213L670 27Z"/><glyph unicode="u" horiz-adv-x="1167" d="M801 0V102Q761 47 689 12T530 -23Q342 -23 245 98T147 459V1075H358V467Q358 319 410 246T580 172Q686 172 743 243T801 446V1075H1012V0H801Z"/><glyph unicode="v" horiz-adv-x="1110" d="M664 0H453L68 1075H289L561 252L819 1075H1042L664 0Z"/><glyph unicode="w" horiz-adv-x="1518" d="M1137 0H956L756 752L557 0H377L82 1075H291L471 337L674 1075H844L1048 337L1227 1075H1436L1137 0Z"/><glyph unicode="x" horiz-adv-x="1087" d="M756 0L541 389L319 0H82L420 557L104 1075H348L545 719L741 1075H983L666 557L1006 0H756Z"/><glyph unicode="y" horiz-adv-x="1139" d="M530 -379H307L463 20L68 1075H299L569 265L848 1075H1071L530 -379Z"/><glyph unicode="z" horiz-adv-x="1079" d="M119 0V172L707 891H160V1075H948V905L371 184H948V0H119Z"/><glyph unicode="{" horiz-adv-x="870" d="M762 -225Q523 -225 406 -122T289 207V338Q289 391 284 425T265 480T229 508T172 516H125V698H172Q206 698 229 706T265 734T283 789T289 877V1010Q289 1233 406 1338T762 1444V1288Q687 1280 637 1261T557 1209T515 1130T502 1022V926Q502 854 494 801T468 710T420 647T346 606Q390 591 420 567T468 505T494 414T502 289V193Q502 132 514 87T557 10T637 -41T762 -68V-225Z"/><glyph unicode="|" horiz-adv-x="604" d="M205 -379V1638H399V-379H205Z"/><glyph unicode="}" horiz-adv-x="870" d="M698 520Q664 520 642 512T606 484T588 429T582 342V209Q582 -14 465 -119T109 -225V-70Q185 -61 234 -42T314 11T356 90T369 197V293Q369 365 377 418T403 509T451 571T524 612Q479 628 450 652T403 714T377 805T369 930V1025Q369 1086 357 1131T314 1208T234 1259T109 1286V1444Q348 1444 465 1339T582 1012V881Q582 827 587 793T606 738T641 710T698 702H745V520H698Z"/><glyph unicode="~" horiz-adv-x="1151" d="M1065 868Q1037 797 1006 744T938 654T855 599T752 580Q720 580 695 584T648 596T603 618T555 649Q522 673 472 702T385 731Q360 731 342 724T306 698T272 650T233 575L86 651Q114 722 145 776T213 866T296 921T399 940Q430 940 455 936T503 923T548 901T596 870Q655 830 696 809T764 788Q788 788 807 795T843 821T878 869T918 944L1065 868Z"/><glyph unicode=" " horiz-adv-x="553"/><glyph unicode="¡" horiz-adv-x="610" d="M459 1303Q459 1271 447 1243T413 1194T364 1160T305 1147Q273 1147 246 1159T197 1193T164 1243T152 1303Q152 1334 164 1362T197 1411T245 1444T305 1456Q336 1456 364 1444T413 1411T446 1362T459 1303ZM197 0V637L238 1020H373L414 637V0H197Z"/><glyph unicode="¢" horiz-adv-x="1270" d="M999 977Q966 1011 934 1036T866 1078T789 1102T698 1110Q622 1110 558 1085T448 1011T375 895T348 741Q348 651 373 579T445 455T559 377T709 350Q806 350 879 385T1010 483L1143 356Q1081 290 1000 243T803 180V-23H578V180Q474 197 392 243T252 359T164 523T133 727Q133 841 167 934T260 1098T401 1214T578 1278V1470H803V1284Q922 1269 1006 1224T1149 1114L999 977Z"/><glyph unicode="£" horiz-adv-x="1270" d="M170 0V170Q213 217 247 261T307 355T346 459T362 582H172V756H338Q327 785 312 813T279 872Q262 899 249 924T228 976T215 1032T211 1096Q211 1181 245 1248T342 1361T490 1431T682 1456Q821 1456 933 1409T1143 1270L1020 1120Q943 1196 859 1232T678 1268Q614 1268 567 1254T489 1214T442 1156T426 1083Q426 1040 439 1000T481 913Q501 881 520 841T551 756H854V582H565Q562 515 549 459T515 354T468 264T414 186H1147V0H170Z"/><glyph unicode="¤" horiz-adv-x="1257" d="M684 -23Q550 -23 444 28T265 176T152 409T113 717Q113 893 154 1030T270 1262T452 1406T690 1456Q778 1456 846 1438T969 1382T1067 1290T1151 1159L977 1055Q947 1103 918 1139T856 1199T781 1235T686 1247Q561 1247 476 1177T354 967H838V799H328Q326 779 326 759T326 719Q326 699 326 681T328 643H838V475H352Q391 331 476 259T688 186Q742 186 784 198T864 235T933 295T999 379L1161 262Q1121 202 1076 150T973 60T845 -1T684 -23Z"/><glyph unicode="¥" horiz-adv-x="1270" d="M741 557V430H1073V250H741V0H528V250H199V430H528V553L51 1434H301L637 758L973 1434H1219L741 557Z"/><glyph unicode="¦" horiz-adv-x="633" d="M217 1638H414V764H217V1638ZM217 496H414V-379H217V496Z"/><glyph unicode="§" horiz-adv-x="1352" d="M1239 514Q1239 455 1220 407T1168 318T1096 246T1016 190Q1048 153 1066 107T1085 -2Q1085 -73 1058 -134T979 -240T852 -310T680 -336Q560 -336 459 -299T264 -188L393 -23Q468 -81 543 -106T700 -131Q785 -131 823 -96T862 -8Q862 33 832 62T752 114T638 158T506 201Q433 225 363 257T237 335T147 448T113 606Q113 664 132 713T183 802T255 874T336 930Q304 967 285 1013T266 1122Q266 1193 293 1254T373 1360T500 1430T672 1456Q792 1456 892 1420T1087 1309L958 1143Q884 1202 809 1226T651 1251Q609 1251 579 1242T528 1216T499 1177T489 1128Q489 1087 519 1058T600 1006T714 963T846 920Q919 895 989 863T1115 785T1205 672T1239 514ZM1018 494Q1018 542 997 578T941 641T858 690T756 729Q691 751 625 772T496 821Q416 781 375 734T334 627Q334 579 355 543T411 479T494 430T596 391Q661 369 727 348T856 299Q932 338 975 385T1018 494Z"/><glyph unicode="¨" horiz-adv-x="1024" d="M850 1356Q850 1328 839 1303T809 1260T765 1230T713 1219Q684 1219 659 1230T615 1259T584 1303T573 1356Q573 1384 584 1409T614 1454T659 1484T713 1495Q740 1495 765 1484T809 1454T839 1410T850 1356ZM451 1356Q451 1328 440 1303T410 1260T366 1230T313 1219Q285 1219 260 1230T215 1259T185 1303T174 1356Q174 1384 185 1409T215 1454T259 1484T313 1495Q341 1495 366 1484T410 1454T440 1410T451 1356Z"/><glyph unicode="©" horiz-adv-x="1712" d="M1595 717Q1595 559 1539 424T1383 190T1149 34T856 -23Q698 -23 563 33T329 189T174 424T117 717Q117 875 173 1010T329 1244T564 1400T856 1456Q1012 1456 1148 1400T1383 1245T1538 1010T1595 717ZM1477 717Q1477 849 1430 962T1299 1159T1102 1289T856 1337Q724 1337 611 1290T414 1159T284 963T236 717Q236 585 283 472T414 275T610 144T856 96Q988 96 1101 143T1298 274T1429 471T1477 717ZM1022 901Q990 952 955 975T862 999Q812 999 775 980T712 924T675 837T662 721Q662 657 674 605T712 517T774 460T862 440Q921 440 959 466T1032 547L1147 469Q1099 387 1027 345T862 303Q784 303 721 333T614 419T545 552T520 721Q520 813 544 889T613 1021T721 1106T862 1137Q962 1137 1030 1097T1143 977L1022 901Z"/><glyph unicode="ª" horiz-adv-x="942" d="M627 571V647Q582 604 524 578T399 551Q346 551 292 567T194 618T122 709T94 846Q94 916 121 969T195 1057T306 1110T444 1128Q498 1128 545 1120T627 1096V1151Q627 1220 587 1257T469 1294Q406 1294 352 1283T246 1243L178 1372Q240 1410 312 1433T475 1456Q547 1456 607 1438T710 1382T777 1289T801 1159V571H627ZM627 936Q592 953 547 964T436 975Q356 975 310 942T264 850Q264 785 303 749T426 713Q481 713 536 742T627 821V936Z"/><glyph unicode="«" horiz-adv-x="1204" d="M895 0L516 537L895 1075H1122L754 539L1122 0H895ZM440 0L61 537L440 1075H668L299 539L668 0H440Z"/><glyph unicode="¬" horiz-adv-x="1270" d="M1129 203H918V602H140V807H1129V203Z"/><glyph unicode="­" horiz-adv-x="737" d="M113 645V854H625V645H113Z"/><glyph unicode="®" horiz-adv-x="1712" d="M1595 717Q1595 559 1539 424T1383 190T1149 34T856 -23Q698 -23 563 33T329 189T174 424T117 717Q117 875 173 1010T329 1244T564 1400T856 1456Q1012 1456 1148 1400T1383 1245T1538 1010T1595 717ZM1477 717Q1477 849 1430 962T1299 1159T1102 1289T856 1337Q724 1337 611 1290T414 1159T284 963T236 717Q236 585 283 472T414 275T610 144T856 96Q988 96 1101 143T1298 274T1429 471T1477 717ZM1194 891Q1194 795 1147 736T1022 653L1188 328H1026L868 639H713V328H575V1135H930Q984 1135 1032 1121T1116 1076T1173 1000T1194 891ZM1055 887Q1055 944 1018 972T926 1001H713V772H926Q981 772 1018 799T1055 887Z"/><glyph unicode="¯" horiz-adv-x="1024" d="M225 1249V1434H799V1249H225Z"/><glyph unicode="°" horiz-adv-x="995" d="M903 1053Q903 966 872 892T787 762T658 676T498 645Q412 645 338 676T210 762T124 891T92 1053Q92 1137 123 1210T209 1338T338 1424T498 1456Q584 1456 658 1425T786 1339T872 1211T903 1053ZM719 1053Q719 1098 702 1138T656 1209T586 1256T498 1274Q452 1274 412 1257T341 1209T294 1139T276 1053Q276 1005 293 964T341 893T411 845T498 827Q545 827 585 844T655 892T702 964T719 1053Z"/><glyph unicode="±" horiz-adv-x="1270" d="M740 705V326H529V705H140V909H529V1288H740V909H1129V705H740ZM140 59V248H1129V59H140Z"/><glyph unicode="²" horiz-adv-x="868" d="M106 532Q111 634 134 707T197 835T292 935T416 1022Q463 1051 493 1072T540 1113T564 1151T571 1194Q571 1242 537 1269T438 1296Q405 1296 377 1291T322 1274T270 1245T215 1204L119 1337Q156 1365 192 1387T266 1425T348 1448T442 1456Q511 1456 567 1440T663 1392T726 1313T748 1202Q748 1152 737 1114T699 1041T630 974T524 901Q470 867 433 840T371 789T332 743T309 696H756V532H106Z"/><glyph unicode="³" horiz-adv-x="817" d="M377 520Q281 520 200 560T55 666L168 782Q219 731 270 705T381 678Q465 678 507 710T549 809Q549 869 505 898T387 928H293V1081H387Q452 1081 483 1110T514 1192Q514 1238 481 1268T373 1298Q323 1298 281 1276T193 1212L86 1329Q143 1383 214 1419T377 1456Q444 1456 501 1441T599 1394T664 1316T688 1206Q688 1138 664 1094T596 1018Q624 1006 647 988T687 944T713 886T723 811Q723 741 699 687T631 596T522 540T377 520Z"/><glyph unicode="´" horiz-adv-x="1024" d="M481 1219H313L532 1546H819L481 1219Z"/><glyph unicode="µ" horiz-adv-x="1176" d="M809 0V102Q763 38 690 8T539 -23Q479 -23 434 -12T365 11V-287L156 -395V1075H367V467Q367 386 382 330T425 238T495 188T588 172Q640 172 677 187T746 238T793 327T809 446V1075H1020V0H809Z"/><glyph unicode="¶" horiz-adv-x="1483" d="M1098 -379V1237H936V-379H733V535H561Q466 535 382 564T234 651T133 793T96 985Q96 1093 133 1176T234 1317T382 1404T561 1434H1300V-379H1098Z"/><glyph unicode="·" horiz-adv-x="520" d="M422 752Q422 719 409 690T374 638T323 603T260 590Q227 590 198 603T146 638T111 689T98 752Q98 785 111 814T146 866T197 902T260 915Q293 915 322 902T374 867T409 815T422 752Z"/><glyph unicode="¸" horiz-adv-x="1024" d="M438 25H543L521 -92Q541 -84 563 -79T620 -74Q646 -74 672 -82T720 -107T754 -152T768 -217Q768 -265 748 -299T694 -354T615 -385T518 -395Q444 -395 383 -376T266 -322L311 -254Q400 -303 491 -303Q559 -303 590 -281T622 -223Q622 -192 604 -175T557 -158Q507 -158 475 -188L401 -160L438 25Z"/><glyph unicode="¹" horiz-adv-x="670" d="M285 1188H131V1317Q172 1320 203 1326T256 1344T293 1378T315 1432H461V522H285V1188Z"/><glyph unicode="º" horiz-adv-x="991" d="M883 1010Q883 902 853 817T770 674T645 584T489 553Q408 553 339 585T218 677T138 819T109 1004Q109 1110 138 1194T220 1336T342 1425T496 1456Q579 1456 650 1425T772 1335T853 1194T883 1010ZM705 1004Q705 1069 690 1121T647 1211T579 1268T489 1288Q441 1288 404 1268T340 1212T301 1125T287 1010Q287 940 302 886T345 796T411 740T498 721Q545 721 583 743T648 804T690 893T705 1004Z"/><glyph unicode="»" horiz-adv-x="1204" d="M764 0H537L905 537L537 1075H764L1143 539L764 0ZM309 0H82L451 537L82 1075H309L688 539L309 0Z"/><glyph unicode="¼" horiz-adv-x="1905" d="M325 1188H171V1317Q212 1320 243 1326T296 1344T333 1378T355 1432H501V522H325V1188ZM539 0H301L1262 1434H1499L539 0ZM1449 198H984V327L1447 910H1615V351H1732V196H1615V1H1449V198ZM1449 351V674L1195 351H1449Z"/><glyph unicode="½" horiz-adv-x="1905" d="M311 1188H157V1317Q198 1320 229 1326T282 1344T319 1378T341 1432H487V522H311V1188ZM486 0H248L1209 1434H1446L486 0ZM1098 -2Q1103 100 1126 173T1189 301T1284 401T1408 488Q1455 517 1485 538T1532 579T1556 617T1563 660Q1563 708 1529 735T1430 762Q1397 762 1369 757T1314 740T1262 711T1207 670L1111 803Q1148 831 1184 853T1258 891T1340 914T1434 922Q1503 922 1559 906T1655 858T1718 779T1740 668Q1740 618 1729 580T1691 507T1622 440T1516 367Q1462 333 1425 306T1363 255T1324 209T1301 162H1748V-2H1098Z"/><glyph unicode="¾" horiz-adv-x="1905" d="M435 520Q339 520 258 560T113 666L226 782Q277 731 328 705T439 678Q523 678 565 710T607 809Q607 869 563 898T445 928H351V1081H445Q510 1081 541 1110T572 1192Q572 1238 539 1268T431 1298Q381 1298 339 1276T251 1212L144 1329Q201 1383 272 1419T435 1456Q502 1456 559 1441T657 1394T722 1316T746 1206Q746 1138 722 1094T654 1018Q682 1006 705 988T745 944T771 886T781 811Q781 741 757 687T689 596T580 540T435 520ZM667 0H429L1390 1434H1627L667 0ZM1509 197H1044V326L1507 909H1675V350H1792V195H1675V0H1509V197ZM1509 350V673L1255 350H1509Z"/><glyph unicode="¿" horiz-adv-x="1169" d="M795 1303Q795 1271 783 1243T749 1194T700 1160T641 1147Q609 1147 581 1159T532 1193T499 1243T487 1303Q487 1334 499 1362T532 1411T581 1444T641 1456Q672 1456 700 1444T749 1411T782 1362T795 1303ZM1100 188Q1056 144 1003 106T886 39T752 -6T600 -23Q491 -23 401 1T247 74T147 193T111 358Q111 433 128 488T178 588T261 668T375 741Q425 769 455 794T501 849T523 920T528 1020H752Q752 930 744 881T726 804T696 744T651 689T595 644T481 573Q442 552 414 532T367 488T339 436T330 371Q330 284 401 237T606 190Q663 190 711 201T803 233T885 283T963 350L1100 188Z"/><glyph unicode="À" horiz-adv-x="1458" d="M1362 0H1133L1012 340H438L319 0H96L612 1434H840L1362 0ZM946 532L723 1171L504 532H946ZM682 1526L344 1853H631L850 1526H682Z"/><glyph unicode="Á" horiz-adv-x="1458" d="M1362 0H1133L1012 340H438L319 0H96L612 1434H840L1362 0ZM946 532L723 1171L504 532H946ZM764 1526H596L815 1853H1102L764 1526Z"/><glyph unicode="Â" horiz-adv-x="1458" d="M1362 0H1133L1012 340H438L319 0H96L612 1434H840L1362 0ZM946 532L723 1171L504 532H946ZM918 1504L723 1684L528 1504H363L602 1831H848L1087 1504H918Z"/><glyph unicode="Ã" horiz-adv-x="1458" d="M1362 0H1133L1012 340H438L319 0H96L612 1434H840L1362 0ZM946 532L723 1171L504 532H946ZM1094 1798Q1094 1730 1078 1678T1033 1590T965 1537T879 1519Q850 1519 824 1524T769 1540T709 1568T637 1610Q616 1622 595 1630T557 1638Q523 1638 505 1614T478 1526H332Q332 1594 348 1646T393 1733T461 1786T547 1804Q576 1804 602 1799T657 1784T717 1756T789 1714Q811 1702 831 1694T869 1685Q903 1685 922 1710T949 1798H1094Z"/><glyph unicode="Ä" horiz-adv-x="1458" d="M1362 0H1133L1012 340H438L319 0H96L612 1434H840L1362 0ZM946 532L723 1171L504 532H946ZM1059 1663Q1059 1635 1048 1610T1018 1567T974 1537T922 1526Q893 1526 868 1537T824 1566T793 1610T782 1663Q782 1691 793 1716T823 1761T868 1791T922 1802Q949 1802 974 1791T1018 1761T1048 1717T1059 1663ZM660 1663Q660 1635 649 1610T619 1567T575 1537T522 1526Q494 1526 469 1537T424 1566T394 1610T383 1663Q383 1691 394 1716T424 1761T468 1791T522 1802Q550 1802 575 1791T619 1761T649 1717T660 1663Z"/><glyph unicode="Å" horiz-adv-x="1458" d="M1133 0L1012 340H438L319 0H96L575 1331Q526 1365 497 1420T467 1544Q467 1599 486 1646T540 1728T622 1782T725 1802Q780 1802 827 1783T909 1729T963 1647T983 1544Q983 1476 955 1422T877 1333L1362 0H1133ZM850 1544Q850 1571 841 1594T815 1633T775 1659T725 1669Q698 1669 675 1660T636 1634T610 1594T600 1544Q600 1517 609 1495T635 1455T675 1429T725 1419Q752 1419 775 1428T814 1455T840 1494T850 1544ZM946 532L723 1171L504 532H946Z"/><glyph unicode="Æ" horiz-adv-x="2085" d="M1935 1434V1225H1227V870H1800V662H1227V209H1966V0H1020V336H489L268 0H29L991 1434H1935ZM621 535H1020V1138L621 535Z"/><glyph unicode="Ç" horiz-adv-x="1341" d="M1022 1069Q994 1113 965 1145T901 1199T823 1230T725 1241Q631 1241 559 1205T439 1100T365 934T340 717Q340 596 365 499T438 334T559 230T725 193Q837 193 911 238T1040 371L1219 252Q1169 172 1125 130T1025 54T895 -1T725 -23Q623 -23 542 4T394 78T275 195T189 342T138 512T119 717Q119 880 161 1015T283 1249T474 1401T725 1456Q900 1456 1019 1387T1212 1188L1022 1069ZM644 25H749L727 -92Q747 -84 769 -79T826 -74Q852 -74 878 -82T926 -107T960 -152T974 -217Q974 -265 954 -299T900 -354T821 -385T724 -395Q650 -395 589 -376T472 -322L517 -254Q606 -303 697 -303Q765 -303 796 -281T828 -223Q828 -192 810 -175T763 -158Q713 -158 681 -188L607 -160L644 25Z"/><glyph unicode="È" horiz-adv-x="1260" d="M1141 0H186V1434H1110V1225H401V870H977V662H401V209H1141V0ZM598 1526L260 1853H547L766 1526H598Z"/><glyph unicode="É" horiz-adv-x="1260" d="M1141 0H186V1434H1110V1225H401V870H977V662H401V209H1141V0ZM680 1526H512L731 1853H1018L680 1526Z"/><glyph unicode="Ê" horiz-adv-x="1260" d="M1141 0H186V1434H1110V1225H401V870H977V662H401V209H1141V0ZM830 1526L635 1706L440 1526H275L514 1853H760L999 1526H830Z"/><glyph unicode="Ë" horiz-adv-x="1260" d="M1141 0H186V1434H1110V1225H401V870H977V662H401V209H1141V0ZM975 1663Q975 1635 964 1610T934 1567T890 1537T838 1526Q809 1526 784 1537T740 1566T709 1610T698 1663Q698 1691 709 1716T739 1761T784 1791T838 1802Q865 1802 890 1791T934 1761T964 1717T975 1663ZM576 1663Q576 1635 565 1610T535 1567T491 1537T438 1526Q410 1526 385 1537T340 1566T310 1610T299 1663Q299 1691 310 1716T340 1761T384 1791T438 1802Q466 1802 491 1791T535 1761T565 1717T576 1663Z"/><glyph unicode="Ì" horiz-adv-x="608" d="M197 0V1434H412V0H197ZM247 1526L-91 1853H196L415 1526H247Z"/><glyph unicode="Í" horiz-adv-x="608" d="M197 0V1434H412V0H197ZM369 1526H201L420 1853H707L369 1526Z"/><glyph unicode="Î" horiz-adv-x="608" d="M197 0V1434H412V0H197ZM499 1512L304 1692L109 1512H-56L183 1839H429L668 1512H499Z"/><glyph unicode="Ï" horiz-adv-x="608" d="M197 0V1434H412V0H197ZM644 1663Q644 1635 633 1610T603 1567T559 1537T507 1526Q478 1526 453 1537T409 1566T378 1610T367 1663Q367 1691 378 1716T408 1761T453 1791T507 1802Q534 1802 559 1791T603 1761T633 1717T644 1663ZM245 1663Q245 1635 234 1610T204 1567T160 1537T107 1526Q79 1526 54 1537T9 1566T-21 1610T-32 1663Q-32 1691 -21 1716T9 1761T53 1791T107 1802Q135 1802 160 1791T204 1761T234 1717T245 1663Z"/><glyph unicode="Ð" horiz-adv-x="1421" d="M1307 717Q1307 527 1251 392T1098 169T876 41T608 0H217V647H82V852H217V1434H608Q752 1434 879 1393T1102 1265T1252 1043T1307 717ZM1087 717Q1087 830 1060 923T975 1083T826 1186T608 1223H426V852H686V647H426V211H608Q735 211 826 247T975 351T1060 511T1087 717Z"/><glyph unicode="Ñ" horiz-adv-x="1462" d="M1276 0H1071L395 1062V0H186V1434H406L1067 372V1434H1276V0ZM1126 1802Q1126 1734 1110 1682T1065 1594T997 1541T911 1523Q882 1523 856 1528T801 1544T741 1572T669 1614Q648 1626 627 1634T589 1642Q555 1642 537 1618T510 1530H364Q364 1598 380 1650T425 1737T493 1790T579 1808Q608 1808 634 1803T689 1788T749 1760T821 1718Q843 1706 863 1698T901 1689Q935 1689 954 1714T981 1802H1126Z"/><glyph unicode="Ò" horiz-adv-x="1456" d="M1339 719Q1339 551 1295 415T1169 181T975 30T725 -23Q589 -23 477 29T285 178T161 411T117 715Q117 882 161 1019T287 1253T480 1403T729 1456Q866 1456 978 1404T1171 1255T1295 1022T1339 719ZM1120 715Q1120 837 1090 934T1007 1100T882 1206T723 1243Q638 1243 567 1207T445 1103T365 938T336 719Q336 597 365 499T447 333T572 227T731 190Q816 190 887 226T1010 330T1091 495T1120 715ZM691 1526L353 1853H640L859 1526H691Z"/><glyph unicode="Ó" horiz-adv-x="1456" d="M1339 719Q1339 551 1295 415T1169 181T975 30T725 -23Q589 -23 477 29T285 178T161 411T117 715Q117 882 161 1019T287 1253T480 1403T729 1456Q866 1456 978 1404T1171 1255T1295 1022T1339 719ZM1120 715Q1120 837 1090 934T1007 1100T882 1206T723 1243Q638 1243 567 1207T445 1103T365 938T336 719Q336 597 365 499T447 333T572 227T731 190Q816 190 887 226T1010 330T1091 495T1120 715ZM760 1526H592L811 1853H1098L760 1526Z"/><glyph unicode="Ô" horiz-adv-x="1456" d="M1339 719Q1339 551 1295 415T1169 181T975 30T725 -23Q589 -23 477 29T285 178T161 411T117 715Q117 882 161 1019T287 1253T480 1403T729 1456Q866 1456 978 1404T1171 1255T1295 1022T1339 719ZM1120 715Q1120 837 1090 934T1007 1100T882 1206T723 1243Q638 1243 567 1207T445 1103T365 938T336 719Q336 597 365 499T447 333T572 227T731 190Q816 190 887 226T1010 330T1091 495T1120 715ZM910 1516L715 1696L520 1516H355L594 1843H840L1079 1516H910Z"/><glyph unicode="Õ" horiz-adv-x="1456" d="M1339 719Q1339 551 1295 415T1169 181T975 30T725 -23Q589 -23 477 29T285 178T161 411T117 715Q117 882 161 1019T287 1253T480 1403T729 1456Q866 1456 978 1404T1171 1255T1295 1022T1339 719ZM1120 715Q1120 837 1090 934T1007 1100T882 1206T723 1243Q638 1243 567 1207T445 1103T365 938T336 719Q336 597 365 499T447 333T572 227T731 190Q816 190 887 226T1010 330T1091 495T1120 715ZM1087 1798Q1087 1730 1071 1678T1026 1590T958 1537T872 1519Q843 1519 817 1524T762 1540T702 1568T630 1610Q609 1622 588 1630T550 1638Q516 1638 498 1614T471 1526H325Q325 1594 341 1646T386 1733T454 1786T540 1804Q569 1804 595 1799T650 1784T710 1756T782 1714Q804 1702 824 1694T862 1685Q896 1685 915 1710T942 1798H1087Z"/><glyph unicode="Ö" horiz-adv-x="1456" d="M1339 719Q1339 551 1295 415T1169 181T975 30T725 -23Q589 -23 477 29T285 178T161 411T117 715Q117 882 161 1019T287 1253T480 1403T729 1456Q866 1456 978 1404T1171 1255T1295 1022T1339 719ZM1120 715Q1120 837 1090 934T1007 1100T882 1206T723 1243Q638 1243 567 1207T445 1103T365 938T336 719Q336 597 365 499T447 333T572 227T731 190Q816 190 887 226T1010 330T1091 495T1120 715ZM1055 1663Q1055 1635 1044 1610T1014 1567T970 1537T918 1526Q889 1526 864 1537T820 1566T789 1610T778 1663Q778 1691 789 1716T819 1761T864 1791T918 1802Q945 1802 970 1791T1014 1761T1044 1717T1055 1663ZM656 1663Q656 1635 645 1610T615 1567T571 1537T518 1526Q490 1526 465 1537T420 1566T390 1610T379 1663Q379 1691 390 1716T420 1761T464 1791T518 1802Q546 1802 571 1791T615 1761T645 1717T656 1663Z"/><glyph unicode="×" horiz-adv-x="1270" d="M999 207L635 578L270 207L137 340L508 705L137 1069L270 1202L635 831L999 1202L1133 1069L762 705L1133 340L999 207Z"/><glyph unicode="Ø" horiz-adv-x="1456" d="M1333 717Q1333 554 1291 418T1169 184T978 32T725 -23Q604 -23 498 20L442 -102H242L342 119Q236 218 178 371T119 717Q119 880 161 1015T283 1249T474 1401T725 1456Q839 1456 934 1419L987 1536H1188L1092 1327Q1149 1279 1194 1215T1270 1073T1317 906T1333 717ZM850 1233Q796 1249 725 1249Q631 1249 559 1211T438 1104T364 936T338 717Q338 584 361 489T436 326L850 1233ZM1114 717Q1114 853 1087 955T1001 1126L582 207Q636 184 725 184Q819 184 892 222T1014 329T1088 497T1114 717Z"/><glyph unicode="Ù" horiz-adv-x="1442" d="M1266 598Q1266 448 1230 332T1124 137T951 18T715 -23Q582 -23 481 19T313 141T211 338T176 602V1434H391V608Q391 404 474 299T719 193Q888 193 969 295T1051 594V1434H1266V598ZM682 1495L344 1822H631L850 1495H682Z"/><glyph unicode="Ú" horiz-adv-x="1442" d="M1266 598Q1266 448 1230 332T1124 137T951 18T715 -23Q582 -23 481 19T313 141T211 338T176 602V1434H391V608Q391 404 474 299T719 193Q888 193 969 295T1051 594V1434H1266V598ZM764 1495H596L815 1822H1102L764 1495Z"/><glyph unicode="Û" horiz-adv-x="1442" d="M1266 598Q1266 448 1230 332T1124 137T951 18T715 -23Q582 -23 481 19T313 141T211 338T176 602V1434H391V608Q391 404 474 299T719 193Q888 193 969 295T1051 594V1434H1266V598ZM914 1526L719 1706L524 1526H359L598 1853H844L1083 1526H914Z"/><glyph unicode="Ü" horiz-adv-x="1442" d="M1266 598Q1266 448 1230 332T1124 137T951 18T715 -23Q582 -23 481 19T313 141T211 338T176 602V1434H391V608Q391 404 474 299T719 193Q888 193 969 295T1051 594V1434H1266V598ZM1059 1663Q1059 1635 1048 1610T1018 1567T974 1537T922 1526Q893 1526 868 1537T824 1566T793 1610T782 1663Q782 1691 793 1716T823 1761T868 1791T922 1802Q949 1802 974 1791T1018 1761T1048 1717T1059 1663ZM660 1663Q660 1635 649 1610T619 1567T575 1537T522 1526Q494 1526 469 1537T424 1566T394 1610T383 1663Q383 1691 394 1716T424 1761T468 1791T522 1802Q550 1802 575 1791T619 1761T649 1717T660 1663Z"/><glyph unicode="Ý" horiz-adv-x="1411" d="M1327 1434L813 567V0H598V567L84 1434H336L707 777L1080 1434H1327ZM749 1495H581L800 1822H1087L749 1495Z"/><glyph unicode="Þ" horiz-adv-x="1337" d="M1247 745Q1247 635 1212 551T1114 410T964 324T772 295H401V0H186V1434H401V1194H786Q885 1194 969 1166T1115 1081T1212 941T1247 745ZM1028 745Q1028 861 963 924T780 987H401V502H780Q904 502 966 566T1028 745Z"/><glyph unicode="ß" horiz-adv-x="1190" d="M1085 463Q1085 340 1049 253T945 109T779 26T557 0H532V193H569Q638 193 694 207T789 253T850 333T872 451Q872 518 847 568T779 650T678 699T555 715H532V905H563Q654 905 708 957T762 1102Q762 1190 709 1241T561 1292Q467 1292 417 1235T367 1075V-283L156 -395V1067Q156 1176 185 1255T269 1386T398 1462T565 1487Q652 1487 727 1461T857 1386T943 1267T975 1108Q975 995 926 924T793 823Q844 812 896 788T990 720T1058 614T1085 463Z"/><glyph unicode="à" horiz-adv-x="1126" d="M772 0V106Q731 68 704 51T648 18T575 -10T477 -23Q412 -23 346 -4T226 59T138 172T104 340Q104 430 136 495T226 604T362 667T532 688Q617 688 675 677T772 647V727Q772 815 720 862T569 909Q486 909 419 893T289 842L207 1001Q284 1049 372 1073T575 1098Q665 1098 739 1076T867 1009T949 896T979 737V0H772ZM772 459Q742 473 718 480T668 493T606 502T526 506Q424 506 365 463T305 346Q305 298 322 265T365 210T426 179T512 168Q554 168 593 180T666 211T727 255T772 305V459ZM788 1219L450 1546H737L956 1219H788Z"/><glyph unicode="á" horiz-adv-x="1126" d="M772 0V106Q731 68 704 51T648 18T575 -10T477 -23Q412 -23 346 -4T226 59T138 172T104 340Q104 430 136 495T226 604T362 667T532 688Q617 688 675 677T772 647V727Q772 815 720 862T569 909Q486 909 419 893T289 842L207 1001Q284 1049 372 1073T575 1098Q665 1098 739 1076T867 1009T949 896T979 737V0H772ZM772 459Q742 473 718 480T668 493T606 502T526 506Q424 506 365 463T305 346Q305 298 322 265T365 210T426 179T512 168Q554 168 593 180T666 211T727 255T772 305V459ZM612 1219H444L663 1546H950L612 1219Z"/><glyph unicode="â" horiz-adv-x="1126" d="M772 0V106Q731 68 704 51T648 18T575 -10T477 -23Q412 -23 346 -4T226 59T138 172T104 340Q104 430 136 495T226 604T362 667T532 688Q617 688 675 677T772 647V727Q772 815 720 862T569 909Q486 909 419 893T289 842L207 1001Q284 1049 372 1073T575 1098Q665 1098 739 1076T867 1009T949 896T979 737V0H772ZM772 459Q742 473 718 480T668 493T606 502T526 506Q424 506 365 463T305 346Q305 298 322 265T365 210T426 179T512 168Q554 168 593 180T666 211T727 255T772 305V459ZM762 1466L567 1646L372 1466H207L446 1793H692L931 1466H762Z"/><glyph unicode="ã" horiz-adv-x="1126" d="M772 0V106Q731 68 704 51T648 18T575 -10T477 -23Q412 -23 346 -4T226 59T138 172T104 340Q104 430 136 495T226 604T362 667T532 688Q617 688 675 677T772 647V727Q772 815 720 862T569 909Q486 909 419 893T289 842L207 1001Q284 1049 372 1073T575 1098Q665 1098 739 1076T867 1009T949 896T979 737V0H772ZM772 459Q742 473 718 480T668 493T606 502T526 506Q424 506 365 463T305 346Q305 298 322 265T365 210T426 179T512 168Q554 168 593 180T666 211T727 255T772 305V459ZM940 1491Q940 1423 924 1371T879 1283T811 1230T725 1212Q696 1212 670 1217T615 1233T555 1261T483 1303Q462 1315 441 1323T403 1331Q369 1331 351 1307T324 1219H178Q178 1287 194 1339T239 1426T307 1479T393 1497Q422 1497 448 1492T503 1477T563 1449T635 1407Q657 1395 677 1387T715 1378Q749 1378 768 1403T795 1491H940Z"/><glyph unicode="ä" horiz-adv-x="1126" d="M772 0V106Q731 68 704 51T648 18T575 -10T477 -23Q412 -23 346 -4T226 59T138 172T104 340Q104 430 136 495T226 604T362 667T532 688Q617 688 675 677T772 647V727Q772 815 720 862T569 909Q486 909 419 893T289 842L207 1001Q284 1049 372 1073T575 1098Q665 1098 739 1076T867 1009T949 896T979 737V0H772ZM772 459Q742 473 718 480T668 493T606 502T526 506Q424 506 365 463T305 346Q305 298 322 265T365 210T426 179T512 168Q554 168 593 180T666 211T727 255T772 305V459ZM907 1603Q907 1575 896 1550T866 1507T822 1477T770 1466Q741 1466 716 1477T672 1506T641 1550T630 1603Q630 1631 641 1656T671 1701T716 1731T770 1742Q797 1742 822 1731T866 1701T896 1657T907 1603ZM508 1603Q508 1575 497 1550T467 1507T423 1477T370 1466Q342 1466 317 1477T272 1506T242 1550T231 1603Q231 1631 242 1656T272 1701T316 1731T370 1742Q398 1742 423 1731T467 1701T497 1657T508 1603Z"/><glyph unicode="å" horiz-adv-x="1126" d="M772 0V106Q731 68 704 51T648 18T575 -10T477 -23Q412 -23 346 -4T226 59T138 172T104 340Q104 430 136 495T226 604T362 667T532 688Q617 688 675 677T772 647V727Q772 815 720 862T569 909Q486 909 419 893T289 842L207 1001Q284 1049 372 1073T575 1098Q665 1098 739 1076T867 1009T949 896T979 737V0H772ZM772 459Q742 473 718 480T668 493T606 502T526 506Q424 506 365 463T305 346Q305 298 322 265T365 210T426 179T512 168Q554 168 593 180T666 211T727 255T772 305V459ZM827 1475Q827 1419 808 1373T754 1292T672 1238T569 1219Q514 1219 467 1238T385 1291T331 1372T311 1475Q311 1530 330 1577T384 1659T466 1713T569 1733Q624 1733 671 1714T753 1660T807 1578T827 1475ZM694 1475Q694 1502 685 1525T659 1566T619 1592T569 1602Q542 1602 519 1593T480 1566T454 1526T444 1475Q444 1447 453 1424T479 1384T519 1358T569 1348Q596 1348 619 1357T658 1384T684 1424T694 1475Z"/><glyph unicode="æ" horiz-adv-x="1741" d="M1626 557Q1626 528 1624 503T1620 461H963Q967 389 987 335T1039 245T1113 192T1204 174Q1238 174 1265 179T1316 196T1362 223T1411 260L1540 121Q1505 86 1470 60T1393 15T1303 -13T1192 -23Q1087 -23 998 23T848 160Q788 76 694 27T481 -23Q416 -23 350 -4T228 59T139 172T104 340Q104 429 137 495T229 604T366 669T537 690Q609 690 660 679T756 647V723Q756 808 711 854T569 901Q489 901 423 885T295 834L211 997Q289 1045 376 1071T575 1098Q694 1098 769 1062T889 948Q946 1021 1021 1059T1198 1098Q1306 1098 1386 1054T1520 936T1600 763T1626 557ZM1417 641Q1414 695 1401 742T1362 825T1293 882T1188 903Q1136 903 1097 885T1030 832T986 749T965 641H1417ZM756 457Q735 467 713 476T663 491T603 500T528 504Q428 504 371 461T313 346Q313 268 362 221T514 174Q556 174 592 185T659 216T714 259T756 307Q756 356 756 386T756 457Z"/><glyph unicode="ç" horiz-adv-x="1069" d="M954 178Q922 138 886 102T803 38T700 -6T569 -23Q471 -23 386 17T239 130T140 306T104 535Q104 668 140 773T241 950T391 1060T575 1098Q694 1098 787 1052T956 915L831 766Q793 804 766 825T707 864T641 889T569 897Q512 897 466 872T386 801T335 689T317 541Q317 462 334 396T383 281T464 205T575 178Q613 178 644 186T703 211T759 253T819 311L954 178ZM486 25H591L569 -92Q589 -84 611 -79T668 -74Q694 -74 720 -82T768 -107T802 -152T816 -217Q816 -265 796 -299T742 -354T663 -385T566 -395Q492 -395 431 -376T314 -322L359 -254Q448 -303 539 -303Q607 -303 638 -281T670 -223Q670 -192 652 -175T605 -158Q555 -158 523 -188L449 -160L486 25Z"/><glyph unicode="è" horiz-adv-x="1135" d="M1028 559Q1028 530 1026 505T1022 463H311Q320 385 345 330T406 238T487 185T582 168Q617 168 648 174T707 192T758 216T815 254L940 119Q900 81 864 58T785 16T688 -13T569 -23Q499 -23 438 -4T330 47T246 119T174 223T122 365T104 537Q104 673 138 778T235 954T384 1061T575 1098Q690 1098 775 1055T916 938T1000 766T1028 559ZM815 637Q811 692 796 741T750 827T673 885T561 907Q505 907 463 889T391 836T342 753T315 637H815ZM784 1219L446 1546H733L952 1219H784Z"/><glyph unicode="é" horiz-adv-x="1135" d="M1028 559Q1028 530 1026 505T1022 463H311Q320 385 345 330T406 238T487 185T582 168Q617 168 648 174T707 192T758 216T815 254L940 119Q900 81 864 58T785 16T688 -13T569 -23Q499 -23 438 -4T330 47T246 119T174 223T122 365T104 537Q104 673 138 778T235 954T384 1061T575 1098Q690 1098 775 1055T916 938T1000 766T1028 559ZM815 637Q811 692 796 741T750 827T673 885T561 907Q505 907 463 889T391 836T342 753T315 637H815ZM608 1219H440L659 1546H946L608 1219Z"/><glyph unicode="ê" horiz-adv-x="1135" d="M1028 559Q1028 530 1026 505T1022 463H311Q320 385 345 330T406 238T487 185T582 168Q617 168 648 174T707 192T758 216T815 254L940 119Q900 81 864 58T785 16T688 -13T569 -23Q499 -23 438 -4T330 47T246 119T174 223T122 365T104 537Q104 673 138 778T235 954T384 1061T575 1098Q690 1098 775 1055T916 938T1000 766T1028 559ZM815 637Q811 692 796 741T750 827T673 885T561 907Q505 907 463 889T391 836T342 753T315 637H815ZM758 1456L563 1636L368 1456H203L442 1783H688L927 1456H758Z"/><glyph unicode="ë" horiz-adv-x="1135" d="M1028 559Q1028 530 1026 505T1022 463H311Q320 385 345 330T406 238T487 185T582 168Q617 168 648 174T707 192T758 216T815 254L940 119Q900 81 864 58T785 16T688 -13T569 -23Q499 -23 438 -4T330 47T246 119T174 223T122 365T104 537Q104 673 138 778T235 954T384 1061T575 1098Q690 1098 775 1055T916 938T1000 766T1028 559ZM815 637Q811 692 796 741T750 827T673 885T561 907Q505 907 463 889T391 836T342 753T315 637H815ZM903 1603Q903 1575 892 1550T862 1507T818 1477T766 1466Q737 1466 712 1477T668 1506T637 1550T626 1603Q626 1631 637 1656T667 1701T712 1731T766 1742Q793 1742 818 1731T862 1701T892 1657T903 1603ZM504 1603Q504 1575 493 1550T463 1507T419 1477T366 1466Q338 1466 313 1477T268 1506T238 1550T227 1603Q227 1631 238 1656T268 1701T312 1731T366 1742Q394 1742 419 1731T463 1701T493 1657T504 1603Z"/><glyph unicode="ì" horiz-adv-x="543" d="M164 0V1075H375V0H164ZM214 1219L-124 1546H163L382 1219H214Z"/><glyph unicode="í" horiz-adv-x="543" d="M164 0V1075H375V0H164ZM339 1219H171L390 1546H677L339 1219Z"/><glyph unicode="î" horiz-adv-x="543" d="M164 0V1075H375V0H164ZM464 1189L269 1369L74 1189H-91L148 1516H394L633 1189H464Z"/><glyph unicode="ï" horiz-adv-x="543" d="M164 0V1075H375V0H164ZM607 1337Q607 1309 596 1284T566 1241T522 1211T470 1200Q441 1200 416 1211T372 1240T341 1284T330 1337Q330 1365 341 1390T371 1435T416 1465T470 1476Q497 1476 522 1465T566 1435T596 1391T607 1337ZM208 1337Q208 1309 197 1284T167 1241T123 1211T70 1200Q42 1200 17 1211T-28 1240T-58 1284T-69 1337Q-69 1365 -58 1390T-28 1435T16 1465T70 1476Q98 1476 123 1465T167 1435T197 1391T208 1337Z"/><glyph unicode="ð" horiz-adv-x="1167" d="M1063 596Q1063 430 1026 313T924 121T770 12T578 -23Q476 -23 390 12T240 114T140 274T104 487Q104 611 139 703T235 856T375 948T541 979Q634 979 717 946T856 844Q834 937 790 1017T674 1157L571 1051L451 1157L530 1241Q455 1276 356 1282V1456Q444 1451 520 1431T659 1376L735 1456L856 1350L795 1284Q866 1220 917 1140T1000 969T1048 784T1063 596ZM850 487Q850 565 829 623T772 721T685 779T575 799Q521 799 474 780T392 722T337 626T317 494Q317 421 336 363T391 263T476 200T586 178Q646 178 694 201T777 266T831 364T850 487Z"/><glyph unicode="ñ" horiz-adv-x="1167" d="M809 0V608Q809 754 757 828T588 903Q537 903 494 885T422 829T380 740T367 629V0H156V1075H367V973Q387 1002 416 1025T480 1065T555 1089T637 1098Q734 1098 805 1067T924 976T996 827T1020 616V0H809ZM952 1491Q952 1423 936 1371T891 1283T823 1230T737 1212Q708 1212 682 1217T627 1233T567 1261T495 1303Q474 1315 453 1323T415 1331Q381 1331 363 1307T336 1219H190Q190 1287 206 1339T251 1426T319 1479T405 1497Q434 1497 460 1492T515 1477T575 1449T647 1407Q669 1395 689 1387T727 1378Q761 1378 780 1403T807 1491H952Z"/><glyph unicode="ò" horiz-adv-x="1167" d="M1063 543Q1063 409 1026 304T924 126T770 15T578 -23Q476 -23 390 17T240 130T140 307T104 537Q104 669 141 773T242 949T394 1060T584 1098Q687 1098 774 1059T926 947T1026 772T1063 543ZM850 537Q850 619 831 685T777 799T690 871T575 897Q515 897 468 872T387 800T335 688T317 543Q317 454 336 386T391 272T476 202T586 178Q646 178 694 206T777 283T831 397T850 537ZM796 1219L458 1546H745L964 1219H796Z"/><glyph unicode="ó" horiz-adv-x="1167" d="M1063 543Q1063 409 1026 304T924 126T770 15T578 -23Q476 -23 390 17T240 130T140 307T104 537Q104 669 141 773T242 949T394 1060T584 1098Q687 1098 774 1059T926 947T1026 772T1063 543ZM850 537Q850 619 831 685T777 799T690 871T575 897Q515 897 468 872T387 800T335 688T317 543Q317 454 336 386T391 272T476 202T586 178Q646 178 694 206T777 283T831 397T850 537ZM620 1219H452L671 1546H958L620 1219Z"/><glyph unicode="ô" horiz-adv-x="1167" d="M1063 543Q1063 409 1026 304T924 126T770 15T578 -23Q476 -23 390 17T240 130T140 307T104 537Q104 669 141 773T242 949T394 1060T584 1098Q687 1098 774 1059T926 947T1026 772T1063 543ZM850 537Q850 619 831 685T777 799T690 871T575 897Q515 897 468 872T387 800T335 688T317 543Q317 454 336 386T391 272T476 202T586 178Q646 178 694 206T777 283T831 397T850 537ZM771 1456L576 1636L381 1456H216L455 1783H701L940 1456H771Z"/><glyph unicode="õ" horiz-adv-x="1167" d="M1063 543Q1063 409 1026 304T924 126T770 15T578 -23Q476 -23 390 17T240 130T140 307T104 537Q104 669 141 773T242 949T394 1060T584 1098Q687 1098 774 1059T926 947T1026 772T1063 543ZM850 537Q850 619 831 685T777 799T690 871T575 897Q515 897 468 872T387 800T335 688T317 543Q317 454 336 386T391 272T476 202T586 178Q646 178 694 206T777 283T831 397T850 537ZM948 1491Q948 1423 932 1371T887 1283T819 1230T733 1212Q704 1212 678 1217T623 1233T563 1261T491 1303Q470 1315 449 1323T411 1331Q377 1331 359 1307T332 1219H186Q186 1287 202 1339T247 1426T315 1479T401 1497Q430 1497 456 1492T511 1477T571 1449T643 1407Q665 1395 685 1387T723 1378Q757 1378 776 1403T803 1491H948Z"/><glyph unicode="ö" horiz-adv-x="1167" d="M1063 543Q1063 409 1026 304T924 126T770 15T578 -23Q476 -23 390 17T240 130T140 307T104 537Q104 669 141 773T242 949T394 1060T584 1098Q687 1098 774 1059T926 947T1026 772T1063 543ZM850 537Q850 619 831 685T777 799T690 871T575 897Q515 897 468 872T387 800T335 688T317 543Q317 454 336 386T391 272T476 202T586 178Q646 178 694 206T777 283T831 397T850 537ZM916 1593Q916 1565 905 1540T875 1497T831 1467T779 1456Q750 1456 725 1467T681 1496T650 1540T639 1593Q639 1621 650 1646T680 1691T725 1721T779 1732Q806 1732 831 1721T875 1691T905 1647T916 1593ZM517 1593Q517 1565 506 1540T476 1497T432 1467T379 1456Q351 1456 326 1467T281 1496T251 1540T240 1593Q240 1621 251 1646T281 1691T325 1721T379 1732Q407 1732 432 1721T476 1691T506 1647T517 1593Z"/><glyph unicode="÷" horiz-adv-x="1270" d="M784 1133Q784 1101 772 1074T740 1027T692 995T635 983Q603 983 576 994T529 1026T497 1074T485 1133Q485 1164 497 1192T529 1241T577 1274T635 1286Q665 1286 692 1274T739 1241T772 1192T784 1133ZM141 610V799H1130V610H141ZM784 272Q784 240 772 213T740 166T692 135T635 123Q603 123 576 134T529 166T497 213T485 272Q485 303 497 331T529 380T577 413T635 426Q665 426 692 414T739 380T772 331T784 272Z"/><glyph unicode="ø" horiz-adv-x="1167" d="M1063 543Q1063 409 1026 304T924 126T770 15T578 -23Q501 -23 408 10L350 -102H162L264 104Q190 179 147 288T104 537Q104 669 141 773T242 949T394 1060T584 1098Q627 1098 668 1091T748 1069L801 1178H989L891 981Q971 909 1017 797T1063 543ZM662 897Q621 909 575 909Q513 909 465 883T383 809T333 694T315 543Q315 462 327 403T362 299L662 897ZM852 537Q852 624 837 685T797 791L492 182Q540 166 586 166Q649 166 698 195T782 274T834 392T852 537Z"/><glyph unicode="ù" horiz-adv-x="1167" d="M801 0V102Q761 47 689 12T530 -23Q342 -23 245 98T147 459V1075H358V467Q358 319 410 246T580 172Q686 172 743 243T801 446V1075H1012V0H801ZM798 1219L460 1546H747L966 1219H798Z"/><glyph unicode="ú" horiz-adv-x="1167" d="M801 0V102Q761 47 689 12T530 -23Q342 -23 245 98T147 459V1075H358V467Q358 319 410 246T580 172Q686 172 743 243T801 446V1075H1012V0H801ZM622 1219H454L673 1546H960L622 1219Z"/><glyph unicode="û" horiz-adv-x="1167" d="M801 0V102Q761 47 689 12T530 -23Q342 -23 245 98T147 459V1075H358V467Q358 319 410 246T580 172Q686 172 743 243T801 446V1075H1012V0H801ZM773 1219L578 1399L383 1219H218L457 1546H703L942 1219H773Z"/><glyph unicode="ü" horiz-adv-x="1167" d="M801 0V102Q761 47 689 12T530 -23Q342 -23 245 98T147 459V1075H358V467Q358 319 410 246T580 172Q686 172 743 243T801 446V1075H1012V0H801ZM918 1356Q918 1328 907 1303T877 1260T833 1230T781 1219Q752 1219 727 1230T683 1259T652 1303T641 1356Q641 1384 652 1409T682 1454T727 1484T781 1495Q808 1495 833 1484T877 1454T907 1410T918 1356ZM519 1356Q519 1328 508 1303T478 1260T434 1230T381 1219Q353 1219 328 1230T283 1259T253 1303T242 1356Q242 1384 253 1409T283 1454T327 1484T381 1495Q409 1495 434 1484T478 1454T508 1410T519 1356Z"/><glyph unicode="ý" horiz-adv-x="1139" d="M530 -379H307L463 20L68 1075H299L569 265L848 1075H1071L530 -379ZM610 1200H442L661 1527H948L610 1200Z"/><glyph unicode="þ" horiz-adv-x="1167" d="M1059 520Q1059 382 1024 280T931 111T796 10T635 -23Q594 -23 555 -13T481 14T417 53T365 100V-287L156 -395V1384L365 1493V973Q423 1027 491 1062T645 1098Q732 1098 807 1066T939 963T1027 784T1059 520ZM848 514Q848 716 786 809T606 903Q568 903 534 892T468 861T410 817T362 766V313Q380 289 406 264T466 219T536 185T614 172Q729 172 788 257T848 514Z"/><glyph unicode="ÿ" horiz-adv-x="1139" d="M530 -379H307L463 20L68 1075H299L569 265L848 1075H1071L530 -379ZM905 1593Q905 1565 894 1540T864 1497T820 1467T768 1456Q739 1456 714 1467T670 1496T639 1540T628 1593Q628 1621 639 1646T669 1691T714 1721T768 1732Q795 1732 820 1721T864 1691T894 1647T905 1593ZM506 1593Q506 1565 495 1540T465 1497T421 1467T368 1456Q340 1456 315 1467T270 1496T240 1540T229 1593Q229 1621 240 1646T270 1691T314 1721T368 1732Q396 1732 421 1721T465 1691T495 1647T506 1593Z"/><glyph unicode="ı" horiz-adv-x="543" d="M164 0V1075H375V0H164Z"/><glyph unicode="Œ" horiz-adv-x="2169" d="M1311 662V209H2050V0H1120V170Q1087 122 1042 86T946 25T838 -11T725 -23Q586 -23 474 31T283 184T162 418T119 717Q119 880 161 1015T283 1249T474 1401T725 1456Q786 1456 845 1443T956 1404T1050 1343T1120 1264V1434H2019V1225H1311V870H1884V662H1311ZM1114 717Q1114 837 1089 934T1014 1099T892 1204T725 1241Q631 1241 559 1205T438 1100T364 934T338 717Q338 596 363 499T438 334T559 230T725 193Q819 193 892 229T1014 334T1088 499T1114 717Z"/><glyph unicode="œ" horiz-adv-x="1876" d="M1761 553Q1761 524 1759 501T1755 461H1049Q1057 385 1081 331T1142 242T1222 191T1315 174Q1384 174 1439 196T1546 260L1675 117Q1604 48 1516 13T1303 -23Q1250 -23 1199 -9T1100 31T1014 96T948 182Q918 134 878 96T790 32T689 -9T578 -23Q476 -23 390 17T240 130T140 307T104 537Q104 669 141 773T242 949T394 1060T584 1098Q640 1098 693 1084T794 1043T880 979T946 895Q1005 992 1099 1045T1309 1098Q1423 1098 1508 1054T1649 935T1733 761T1761 553ZM1542 641Q1539 695 1523 742T1477 825T1402 882T1294 903Q1189 903 1129 836T1051 641H1542ZM850 537Q850 619 831 685T777 799T690 871T575 897Q515 897 468 872T387 800T335 688T317 543Q317 454 336 386T391 272T476 202T586 178Q646 178 694 206T777 283T831 397T850 537Z"/><glyph unicode="Š" horiz-adv-x="1282" d="M1147 412Q1147 315 1116 235T1019 98T854 9T616 -23Q538 -23 466 -7T329 40T208 113T106 209L260 358Q296 319 340 288T432 234T531 200T633 188Q785 188 857 240T930 397Q930 439 913 471T858 530T758 583T606 635Q492 669 408 703T269 783T186 895T158 1057Q158 1150 195 1224T295 1349T445 1428T631 1456Q713 1455 775 1442T896 1402T1002 1343T1100 1262L948 1108Q907 1149 874 1171T806 1209T723 1235T614 1245Q551 1245 506 1231T432 1192T389 1136T375 1067Q375 1029 389 1000T438 946T534 896T688 844Q794 812 879 777T1023 692T1115 576T1147 412ZM746 1541H500L261 1868H430L625 1688L820 1868H985L746 1541Z"/><glyph unicode="š" horiz-adv-x="1022" d="M864 979L772 817Q706 864 639 886T494 909Q416 909 381 882T346 811Q346 791 354 773T385 737T445 699T545 655Q635 620 702 588T815 517T884 424T907 295Q907 206 874 145T785 47T656 -7T504 -23Q402 -23 290 14T92 115L188 274Q264 222 345 195T502 168Q602 168 650 199T698 287Q698 318 681 341T632 385T553 425T449 467Q362 501 302 534T204 606T150 693T133 805Q133 877 160 932T236 1023T352 1079T500 1098Q602 1098 697 1065T864 979ZM874 1219H628L389 1546H558L753 1366L948 1546H1113L874 1219Z"/><glyph unicode="Ÿ" horiz-adv-x="1411" d="M1327 1434L813 567V0H598V567L84 1434H336L707 777L1080 1434H1327ZM1045 1643Q1045 1615 1034 1590T1004 1547T960 1517T908 1506Q879 1506 854 1517T810 1546T779 1590T768 1643Q768 1671 779 1696T809 1741T854 1771T908 1782Q935 1782 960 1771T1004 1741T1034 1697T1045 1643ZM646 1643Q646 1615 635 1590T605 1547T561 1517T508 1506Q480 1506 455 1517T410 1546T380 1590T369 1643Q369 1671 380 1696T410 1741T454 1771T508 1782Q536 1782 561 1771T605 1741T635 1697T646 1643Z"/><glyph unicode="Ž" horiz-adv-x="1360" d="M1212 0H123V209L973 1235H164V1434H1212V1225L372 199H1212V0ZM797 1526H551L312 1853H481L676 1673L871 1853H1036L797 1526Z"/><glyph unicode="ž" horiz-adv-x="1079" d="M119 0V172L707 891H160V1075H948V905L371 184H948V0H119ZM670 1219H424L185 1546H354L549 1366L744 1546H909L670 1219Z"/><glyph unicode="ƒ" horiz-adv-x="1270" d="M1118 1260Q1090 1271 1042 1277T934 1284Q853 1284 807 1250T743 1141L727 1059H1036L999 885H692L502 0H289L479 885H240L276 1059H514L532 1143Q549 1227 582 1286T666 1383T782 1438T930 1456Q1004 1456 1062 1449T1155 1430L1118 1260Z"/><glyph unicode="ˆ" horiz-adv-x="1024" d="M705 1219L510 1399L315 1219H150L389 1546H635L874 1219H705Z"/><glyph unicode="ˇ" horiz-adv-x="1024" d="M635 1219H389L150 1546H319L514 1366L709 1546H874L635 1219Z"/><glyph unicode="ˉ" horiz-adv-x="1024" d="M225 1249V1434H799V1249H225Z"/><glyph unicode="˚" horiz-adv-x="1024" d="M770 1475Q770 1419 751 1373T697 1292T615 1238T512 1219Q457 1219 410 1238T328 1291T274 1372T254 1475Q254 1530 273 1577T327 1659T409 1713T512 1733Q567 1733 614 1714T696 1660T750 1578T770 1475ZM637 1475Q637 1502 628 1525T602 1566T562 1592T512 1602Q485 1602 462 1593T423 1566T397 1526T387 1475Q387 1447 396 1424T422 1384T462 1358T512 1348Q539 1348 562 1357T601 1384T627 1424T637 1475Z"/><glyph unicode="˜" horiz-adv-x="1024" d="M899 1491Q899 1423 883 1371T838 1283T770 1230T684 1212Q655 1212 629 1217T574 1233T514 1261T442 1303Q421 1315 400 1323T362 1331Q328 1331 310 1307T283 1219H137Q137 1287 153 1339T198 1426T266 1479T352 1497Q381 1497 407 1492T462 1477T522 1449T594 1407Q616 1395 636 1387T674 1378Q708 1378 727 1403T754 1491H899Z"/><glyph unicode="–" horiz-adv-x="942" d="M113 651V848H829V651H113Z"/><glyph unicode="—" horiz-adv-x="1270" d="M113 651V848H1157V651H113Z"/><glyph unicode="‘" horiz-adv-x="543" d="M381 920H113L268 1434H410L381 920Z"/><glyph unicode="’" horiz-adv-x="543" d="M274 920H133L162 1434H430L274 920Z"/><glyph unicode="‚" horiz-adv-x="543" d="M274 -229H133L162 285H430L274 -229Z"/><glyph unicode="“" horiz-adv-x="1024" d="M862 920H594L750 1434H891L862 920ZM381 920H113L268 1434H410L381 920Z"/><glyph unicode="”" horiz-adv-x="1024" d="M756 920H614L643 1434H911L756 920ZM274 920H133L162 1434H430L274 920Z"/><glyph unicode="„" horiz-adv-x="1024" d="M756 -229H614L643 285H911L756 -229ZM274 -229H133L162 285H430L274 -229Z"/><glyph unicode="†" horiz-adv-x="1217" d="M713 778V-205H504V778H113V977H504V1434H713V977H1104V778H713Z"/><glyph unicode="‡" horiz-adv-x="1217" d="M713 252V-205H504V252H113V451H504V778H113V977H504V1434H713V977H1104V778H713V451H1104V252H713Z"/><glyph unicode="•" horiz-adv-x="881" d="M748 750Q748 685 724 629T659 532T561 466T440 442Q375 442 319 466T222 531T157 629T133 750Q133 814 157 871T222 970T319 1036T440 1061Q504 1061 560 1037T658 970T724 871T748 750Z"/><glyph unicode="…" horiz-adv-x="1561" d="M1462 139Q1462 106 1449 77T1414 25T1363 -10T1300 -23Q1267 -23 1238 -10T1187 25T1152 76T1139 139Q1139 172 1152 201T1186 253T1237 289T1300 303Q1333 303 1362 290T1414 254T1449 202T1462 139ZM942 139Q942 106 929 77T894 25T843 -10T780 -23Q747 -23 718 -10T666 25T631 76T618 139Q618 172 631 201T666 253T717 289T780 303Q813 303 842 290T894 254T929 202T942 139ZM422 139Q422 106 409 77T374 25T323 -10T260 -23Q227 -23 198 -10T146 25T111 76T98 139Q98 172 111 201T146 253T197 289T260 303Q293 303 322 290T374 254T409 202T422 139Z"/><glyph unicode="‰" horiz-adv-x="2810" d="M666 0H459L1337 1434H1544L666 0ZM1903 424Q1903 326 1877 244T1803 103T1690 11T1546 -23Q1468 -23 1404 9T1293 101T1222 241T1196 420Q1196 519 1221 601T1293 743T1405 835T1550 868Q1631 868 1696 835T1808 744T1878 603T1903 424ZM1718 420Q1718 481 1707 531T1674 616T1621 671T1548 690Q1467 690 1424 619T1380 424Q1380 362 1391 313T1424 228T1477 173T1550 154Q1591 154 1622 174T1675 231T1707 315T1718 420ZM2730 424Q2730 326 2704 244T2631 103T2518 11T2374 -23Q2296 -23 2231 9T2120 101T2049 241T2023 420Q2023 519 2048 601T2120 743T2232 835T2378 868Q2459 868 2524 835T2635 744T2705 603T2730 424ZM2546 420Q2546 481 2535 531T2502 616T2448 671T2376 690Q2294 690 2251 619T2208 424Q2208 362 2219 313T2252 228T2305 173T2378 154Q2418 154 2449 174T2502 231T2535 315T2546 420ZM809 1012Q809 914 783 832T710 691T597 599T453 565Q375 565 310 597T199 689T128 829T102 1008Q102 1107 127 1189T199 1331T311 1423T457 1456Q538 1456 603 1423T714 1332T784 1191T809 1012ZM625 1008Q625 1069 614 1119T581 1204T527 1258T455 1278Q373 1278 330 1207T287 1012Q287 950 298 900T331 815T384 761T457 741Q497 741 528 761T581 818T614 903T625 1008Z"/><glyph unicode="‹" horiz-adv-x="750" d="M440 0L61 537L440 1075H668L299 539L668 0H440Z"/><glyph unicode="›" horiz-adv-x="750" d="M309 0H82L451 537L82 1075H309L688 539L309 0Z"/><glyph unicode="⁄" horiz-adv-x="969" d="M123 0H-115L846 1434H1083L123 0Z"/><glyph unicode="€" horiz-adv-x="1270" d="M723 -23Q621 -23 538 11T391 113T287 276T227 498H78V645H211Q210 699 210 722T211 799H78V944H227Q271 1196 400 1326T729 1456Q812 1456 875 1438T987 1385T1075 1298T1149 1176L973 1083Q947 1137 923 1173T870 1231T807 1262T725 1272Q674 1272 628 1254T545 1197T480 1096T438 944H870V799H424Q422 779 422 759T422 719Q422 699 422 681T424 645H870V498H438Q453 393 485 328T558 226T643 176T729 162Q776 162 811 173T877 208T933 267T989 352L1153 256Q1117 194 1077 143T985 55T870 -2T723 -23Z"/><glyph unicode="™" horiz-adv-x="1577" d="M406 1298V627H268V1298H39V1434H635V1298H406ZM1360 627V1139L1126 602L899 1140V627H768V1434H905L1130 915L1352 1434H1491V627H1360Z"/><glyph unicode="∕" horiz-adv-x="969" d="M123 0H-115L846 1434H1083L123 0Z"/><glyph unicode="∙" horiz-adv-x="520" d="M422 752Q422 719 409 690T374 638T323 603T260 590Q227 590 198 603T146 638T111 689T98 752Q98 785 111 814T146 866T197 902T260 915Q293 915 322 902T374 867T409 815T422 752Z"/><glyph unicode="ﬁ" horiz-adv-x="1270" d="M1135 1350Q1135 1322 1124 1298T1095 1255T1052 1225T999 1214Q971 1214 946 1225T903 1254T873 1297T862 1350Q862 1378 873 1403T902 1446T946 1476T999 1487Q1027 1487 1051 1476T1094 1447T1124 1403T1135 1350ZM659 1282Q622 1293 593 1298T537 1303Q484 1303 461 1280T438 1198V1075H637V879H438V0H227V879H88V1075H227V1217Q227 1290 248 1341T306 1425T393 1472T500 1487Q542 1487 583 1482T659 1466V1282ZM893 0V1075H1104V0H893Z"/><glyph unicode="ﬂ" horiz-adv-x="1270" d="M893 0V1382L1104 1493V0H893ZM659 1282Q622 1293 593 1298T537 1303Q484 1303 461 1280T438 1198V1075H637V879H438V0H227V879H88V1075H227V1217Q227 1290 248 1341T306 1425T393 1472T500 1487Q542 1487 583 1482T659 1466V1282Z"/></font>
</defs>
</svg>
